solid STL generated by MeshLab
  facet normal -4.835438e-01  0.000000e+00  8.753201e-01
    outer loop
      vertex   7.236520e-01  3.000000e-01  2.286484e-01
      vertex   7.341509e-01  3.000000e-01  2.344482e-01
      vertex   7.236520e-01  5.000000e-01  2.286484e-01
    endloop
  endfacet
  facet normal -4.835438e-01  0.000000e+00  8.753201e-01
    outer loop
      vertex   7.236520e-01  5.000000e-01  2.286484e-01
      vertex   7.341509e-01  3.000000e-01  2.344482e-01
      vertex   7.341509e-01  5.000000e-01  2.344482e-01
    endloop
  endfacet
  facet normal  8.756883e-01 -0.000000e+00  4.828768e-01
    outer loop
      vertex   7.178581e-01  3.000000e-01  2.391555e-01
      vertex   7.236520e-01  3.000000e-01  2.286484e-01
      vertex   7.178581e-01  5.000000e-01  2.391555e-01
    endloop
  endfacet
  facet normal  8.756883e-01  0.000000e+00  4.828768e-01
    outer loop
      vertex   7.178581e-01  5.000000e-01  2.391555e-01
      vertex   7.236520e-01  3.000000e-01  2.286484e-01
      vertex   7.236520e-01  5.000000e-01  2.286484e-01
    endloop
  endfacet
  facet normal -9.884216e-01  0.000000e+00 -1.517327e-01
    outer loop
      vertex   7.341509e-01  3.000000e-01  2.344482e-01
      vertex   7.326692e-01  3.000000e-01  2.441004e-01
      vertex   7.341509e-01  5.000000e-01  2.344482e-01
    endloop
  endfacet
  facet normal -9.884216e-01  0.000000e+00 -1.517327e-01
    outer loop
      vertex   7.341509e-01  5.000000e-01  2.344482e-01
      vertex   7.326692e-01  3.000000e-01  2.441004e-01
      vertex   7.326692e-01  5.000000e-01  2.441004e-01
    endloop
  endfacet
  facet normal -3.188139e-01  0.000000e+00  9.478173e-01
    outer loop
      vertex   7.326692e-01  3.000000e-01  2.441004e-01
      vertex   8.357614e-01  3.000000e-01  2.787772e-01
      vertex   7.326692e-01  5.000000e-01  2.441004e-01
    endloop
  endfacet
  facet normal -3.188139e-01  0.000000e+00  9.478173e-01
    outer loop
      vertex   7.326692e-01  5.000000e-01  2.441004e-01
      vertex   8.357614e-01  3.000000e-01  2.787772e-01
      vertex   8.357614e-01  5.000000e-01  2.787772e-01
    endloop
  endfacet
  facet normal -1.000000e+00  0.000000e+00  0.000000e+00
    outer loop
      vertex   9.000158e-01  5.000000e-01  3.679493e-01
      vertex   9.000158e-01  3.000000e-01  3.679493e-01
      vertex   9.000158e-01  5.000000e-01  6.480016e-01
    endloop
  endfacet
  facet normal -1.000000e+00 -0.000000e+00  0.000000e+00
    outer loop
      vertex   9.000158e-01  5.000000e-01  6.480016e-01
      vertex   9.000158e-01  3.000000e-01  3.679493e-01
      vertex   9.000158e-01  3.000000e-01  6.480016e-01
    endloop
  endfacet
  facet normal -9.922165e-01  0.000000e+00  1.245252e-01
    outer loop
      vertex   9.000158e-01  3.000000e-01  3.679493e-01
      vertex   9.000158e-01  5.000000e-01  3.679493e-01
      vertex   8.970998e-01  3.000000e-01  3.447143e-01
    endloop
  endfacet
  facet normal -9.922165e-01  0.000000e+00  1.245252e-01
    outer loop
      vertex   8.970998e-01  3.000000e-01  3.447143e-01
      vertex   9.000158e-01  5.000000e-01  3.679493e-01
      vertex   8.970998e-01  5.000000e-01  3.447143e-01
    endloop
  endfacet
  facet normal -9.306390e-01  0.000000e+00  3.659386e-01
    outer loop
      vertex   8.970998e-01  3.000000e-01  3.447143e-01
      vertex   8.970998e-01  5.000000e-01  3.447143e-01
      vertex   8.885305e-01  3.000000e-01  3.229213e-01
    endloop
  endfacet
  facet normal -9.306390e-01  0.000000e+00  3.659386e-01
    outer loop
      vertex   8.885305e-01  3.000000e-01  3.229213e-01
      vertex   8.970998e-01  5.000000e-01  3.447143e-01
      vertex   8.885305e-01  5.000000e-01  3.229213e-01
    endloop
  endfacet
  facet normal -8.113133e-01  0.000000e+00  5.846117e-01
    outer loop
      vertex   8.885305e-01  3.000000e-01  3.229213e-01
      vertex   8.885305e-01  5.000000e-01  3.229213e-01
      vertex   8.748404e-01  3.000000e-01  3.039225e-01
    endloop
  endfacet
  facet normal -8.113133e-01  0.000000e+00  5.846117e-01
    outer loop
      vertex   8.748404e-01  3.000000e-01  3.039225e-01
      vertex   8.885305e-01  5.000000e-01  3.229213e-01
      vertex   8.748404e-01  5.000000e-01  3.039225e-01
    endloop
  endfacet
  facet normal -6.416406e-01  0.000000e+00  7.670055e-01
    outer loop
      vertex   8.748404e-01  3.000000e-01  3.039225e-01
      vertex   8.748404e-01  5.000000e-01  3.039225e-01
      vertex   8.568792e-01  3.000000e-01  2.888970e-01
    endloop
  endfacet
  facet normal -6.416406e-01  0.000000e+00  7.670055e-01
    outer loop
      vertex   8.568792e-01  3.000000e-01  2.888970e-01
      vertex   8.748404e-01  5.000000e-01  3.039225e-01
      vertex   8.568792e-01  5.000000e-01  2.888970e-01
    endloop
  endfacet
  facet normal -4.321486e-01  0.000000e+00  9.018025e-01
    outer loop
      vertex   8.568792e-01  3.000000e-01  2.888970e-01
      vertex   8.568792e-01  5.000000e-01  2.888970e-01
      vertex   8.357614e-01  3.000000e-01  2.787772e-01
    endloop
  endfacet
  facet normal -4.321486e-01  0.000000e+00  9.018025e-01
    outer loop
      vertex   8.357614e-01  3.000000e-01  2.787772e-01
      vertex   8.568792e-01  5.000000e-01  2.888970e-01
      vertex   8.357614e-01  5.000000e-01  2.787772e-01
    endloop
  endfacet
  facet normal  1.000000e+00  0.000000e+00  0.000000e+00
    outer loop
      vertex   7.541753e-01  5.000000e-01  6.480016e-01
      vertex   7.541753e-01  3.000000e-01  6.480016e-01
      vertex   7.541753e-01  5.000000e-01  4.463677e-01
    endloop
  endfacet
  facet normal  1.000000e+00  0.000000e+00  0.000000e+00
    outer loop
      vertex   7.541753e-01  5.000000e-01  4.463677e-01
      vertex   7.541753e-01  3.000000e-01  6.480016e-01
      vertex   7.541753e-01  3.000000e-01  4.463677e-01
    endloop
  endfacet
  facet normal  6.381072e-01  0.000000e+00 -7.699475e-01
    outer loop
      vertex   7.541753e-01  5.000000e-01  4.463677e-01
      vertex   7.541753e-01  3.000000e-01  4.463677e-01
      vertex   7.385810e-01  5.000000e-01  4.334437e-01
    endloop
  endfacet
  facet normal  6.381072e-01  0.000000e+00 -7.699475e-01
    outer loop
      vertex   7.385810e-01  5.000000e-01  4.334437e-01
      vertex   7.541753e-01  3.000000e-01  4.463677e-01
      vertex   7.385810e-01  3.000000e-01  4.334437e-01
    endloop
  endfacet
  facet normal  7.882226e-01  0.000000e+00 -6.153904e-01
    outer loop
      vertex   7.385810e-01  5.000000e-01  4.334437e-01
      vertex   7.385810e-01  3.000000e-01  4.334437e-01
      vertex   7.261171e-01  5.000000e-01  4.174792e-01
    endloop
  endfacet
  facet normal  7.882226e-01  0.000000e+00 -6.153904e-01
    outer loop
      vertex   7.261171e-01  5.000000e-01  4.174792e-01
      vertex   7.385810e-01  3.000000e-01  4.334437e-01
      vertex   7.261171e-01  3.000000e-01  4.174792e-01
    endloop
  endfacet
  facet normal  9.017453e-01  0.000000e+00 -4.322677e-01
    outer loop
      vertex   7.261171e-01  5.000000e-01  4.174792e-01
      vertex   7.261171e-01  3.000000e-01  4.174792e-01
      vertex   7.173620e-01  5.000000e-01  3.992155e-01
    endloop
  endfacet
  facet normal  9.017453e-01  0.000000e+00 -4.322677e-01
    outer loop
      vertex   7.173620e-01  5.000000e-01  3.992155e-01
      vertex   7.261171e-01  3.000000e-01  4.174792e-01
      vertex   7.173620e-01  3.000000e-01  3.992155e-01
    endloop
  endfacet
  facet normal  9.734079e-01  0.000000e+00 -2.290782e-01
    outer loop
      vertex   7.173620e-01  5.000000e-01  3.992155e-01
      vertex   7.173620e-01  3.000000e-01  3.992155e-01
      vertex   7.127224e-01  5.000000e-01  3.795004e-01
    endloop
  endfacet
  facet normal  9.734079e-01  0.000000e+00 -2.290782e-01
    outer loop
      vertex   7.127224e-01  5.000000e-01  3.795004e-01
      vertex   7.173620e-01  3.000000e-01  3.992155e-01
      vertex   7.127224e-01  3.000000e-01  3.795004e-01
    endloop
  endfacet
  facet normal  9.998838e-01  0.000000e+00 -1.525010e-02
    outer loop
      vertex   7.127224e-01  5.000000e-01  3.795004e-01
      vertex   7.127224e-01  3.000000e-01  3.795004e-01
      vertex   7.124135e-01  5.000000e-01  3.592491e-01
    endloop
  endfacet
  facet normal  9.998838e-01  0.000000e+00 -1.525010e-02
    outer loop
      vertex   7.124135e-01  5.000000e-01  3.592491e-01
      vertex   7.127224e-01  3.000000e-01  3.795004e-01
      vertex   7.124135e-01  3.000000e-01  3.592491e-01
    endloop
  endfacet
  facet normal  9.644842e-01 -0.000000e+00  2.641405e-01
    outer loop
      vertex   7.178581e-01  3.000000e-01  2.391555e-01
      vertex   7.178581e-01  5.000000e-01  2.391555e-01
      vertex   7.070974e-01  3.000000e-01  2.784475e-01
    endloop
  endfacet
  facet normal  9.644842e-01 -0.000000e+00  2.641405e-01
    outer loop
      vertex   7.070974e-01  3.000000e-01  2.784475e-01
      vertex   7.178581e-01  5.000000e-01  2.391555e-01
      vertex   7.070974e-01  5.000000e-01  2.784475e-01
    endloop
  endfacet
  facet normal  9.989739e-01 -0.000000e+00  4.528999e-02
    outer loop
      vertex   7.070974e-01  3.000000e-01  2.784475e-01
      vertex   7.070974e-01  5.000000e-01  2.784475e-01
      vertex   7.052523e-01  3.000000e-01  3.191445e-01
    endloop
  endfacet
  facet normal  9.989739e-01 -0.000000e+00  4.528999e-02
    outer loop
      vertex   7.052523e-01  3.000000e-01  3.191445e-01
      vertex   7.070974e-01  5.000000e-01  2.784475e-01
      vertex   7.052523e-01  5.000000e-01  3.191445e-01
    endloop
  endfacet
  facet normal  9.844289e-01  0.000000e+00 -1.757830e-01
    outer loop
      vertex   7.052523e-01  3.000000e-01  3.191445e-01
      vertex   7.052523e-01  5.000000e-01  3.191445e-01
      vertex   7.124135e-01  3.000000e-01  3.592491e-01
    endloop
  endfacet
  facet normal  9.844289e-01  0.000000e+00 -1.757830e-01
    outer loop
      vertex   7.124135e-01  3.000000e-01  3.592491e-01
      vertex   7.052523e-01  5.000000e-01  3.191445e-01
      vertex   7.124135e-01  5.000000e-01  3.592491e-01
    endloop
  endfacet
endsolid vcg
