solid STL generated by MeshLab
  facet normal  0.000000e+00 -1.000000e+00  0.000000e+00
    outer loop
      vertex   8.600107e-01  3.000000e-01  1.000000e-06
      vertex   1.620038e+00  3.000000e-01  4.797721e-02
      vertex   7.868571e-01  3.000000e-01  1.499913e-01
    endloop
  endfacet
  facet normal  0.000000e+00 -1.000000e+00  0.000000e+00
    outer loop
      vertex   7.868571e-01  3.000000e-01  1.499913e-01
      vertex   1.620038e+00  3.000000e-01  4.797721e-02
      vertex   8.568792e-01  3.000000e-01  2.888970e-01
    endloop
  endfacet
  facet normal  0.000000e+00 -1.000000e+00  0.000000e+00
    outer loop
      vertex   7.868571e-01  3.000000e-01  1.499913e-01
      vertex   8.568792e-01  3.000000e-01  2.888970e-01
      vertex   7.819384e-01  3.000000e-01  1.557404e-01
    endloop
  endfacet
  facet normal  0.000000e+00 -1.000000e+00  0.000000e+00
    outer loop
      vertex   7.819384e-01  3.000000e-01  1.557404e-01
      vertex   8.568792e-01  3.000000e-01  2.888970e-01
      vertex   8.357614e-01  3.000000e-01  2.787772e-01
    endloop
  endfacet
  facet normal  0.000000e+00 -1.000000e+00  0.000000e+00
    outer loop
      vertex   7.819384e-01  3.000000e-01  1.557404e-01
      vertex   8.357614e-01  3.000000e-01  2.787772e-01
      vertex   7.757584e-01  3.000000e-01  1.601053e-01
    endloop
  endfacet
  facet normal  0.000000e+00 -1.000000e+00  0.000000e+00
    outer loop
      vertex   7.757584e-01  3.000000e-01  1.601053e-01
      vertex   8.357614e-01  3.000000e-01  2.787772e-01
      vertex   7.341509e-01  3.000000e-01  2.344482e-01
    endloop
  endfacet
  facet normal  0.000000e+00 -1.000000e+00  0.000000e+00
    outer loop
      vertex   7.757584e-01  3.000000e-01  1.601053e-01
      vertex   7.341509e-01  3.000000e-01  2.344482e-01
      vertex   7.686957e-01  3.000000e-01  1.628186e-01
    endloop
  endfacet
  facet normal  0.000000e+00 -1.000000e+00  0.000000e+00
    outer loop
      vertex   7.686957e-01  3.000000e-01  1.628186e-01
      vertex   7.341509e-01  3.000000e-01  2.344482e-01
      vertex   7.236520e-01  3.000000e-01  2.286484e-01
    endloop
  endfacet
  facet normal  0.000000e+00 -1.000000e+00  0.000000e+00
    outer loop
      vertex   7.686957e-01  3.000000e-01  1.628186e-01
      vertex   7.236520e-01  3.000000e-01  2.286484e-01
      vertex   6.581669e-01  3.000000e-01  1.732098e-01
    endloop
  endfacet
  facet normal  0.000000e+00 -1.000000e+00  0.000000e+00
    outer loop
      vertex   6.581669e-01  3.000000e-01  1.732098e-01
      vertex   7.236520e-01  3.000000e-01  2.286484e-01
      vertex   6.536311e-01  3.000000e-01  1.743759e-01
    endloop
  endfacet
  facet normal  0.000000e+00 -1.000000e+00  0.000000e+00
    outer loop
      vertex   6.536311e-01  3.000000e-01  1.743759e-01
      vertex   7.236520e-01  3.000000e-01  2.286484e-01
      vertex   6.240394e-01  3.000000e-01  1.743759e-01
    endloop
  endfacet
  facet normal  0.000000e+00 -1.000000e+00  0.000000e+00
    outer loop
      vertex   6.240394e-01  3.000000e-01  1.743759e-01
      vertex   7.236520e-01  3.000000e-01  2.286484e-01
      vertex   7.178581e-01  3.000000e-01  2.391555e-01
    endloop
  endfacet
  facet normal -0.000000e+00 -1.000000e+00  0.000000e+00
    outer loop
      vertex   6.240394e-01  3.000000e-01  1.743759e-01
      vertex   7.178581e-01  3.000000e-01  2.391555e-01
      vertex   5.520288e-01  3.000000e-01  1.599822e-01
    endloop
  endfacet
  facet normal  0.000000e+00 -1.000000e+00  0.000000e+00
    outer loop
      vertex   5.520288e-01  3.000000e-01  1.599822e-01
      vertex   7.178581e-01  3.000000e-01  2.391555e-01
      vertex   7.070974e-01  3.000000e-01  2.784475e-01
    endloop
  endfacet
  facet normal -0.000000e+00 -1.000000e+00  0.000000e+00
    outer loop
      vertex   5.520288e-01  3.000000e-01  1.599822e-01
      vertex   7.070974e-01  3.000000e-01  2.784475e-01
      vertex   2.000059e-01  3.000000e-01  1.480016e-01
    endloop
  endfacet
  facet normal  0.000000e+00 -1.000000e+00  0.000000e+00
    outer loop
      vertex   2.000059e-01  3.000000e-01  1.480016e-01
      vertex   7.070974e-01  3.000000e-01  2.784475e-01
      vertex   7.052523e-01  3.000000e-01  3.191445e-01
    endloop
  endfacet
  facet normal  0.000000e+00 -1.000000e+00  0.000000e+00
    outer loop
      vertex   2.000059e-01  3.000000e-01  1.480016e-01
      vertex   7.052523e-01  3.000000e-01  3.191445e-01
      vertex   7.124135e-01  3.000000e-01  3.592491e-01
    endloop
  endfacet
  facet normal  0.000000e+00 -1.000000e+00  0.000000e+00
    outer loop
      vertex   8.600107e-01  3.000000e-01  1.000000e-06
      vertex   1.620038e+00  3.000000e-01  1.000000e-06
      vertex   1.620038e+00  3.000000e-01  4.797721e-02
    endloop
  endfacet
  facet normal  0.000000e+00 -1.000000e+00  0.000000e+00
    outer loop
      vertex   2.260038e+00  3.000000e-01  4.797721e-02
      vertex   2.260038e+00  3.000000e-01  6.480016e-01
      vertex   1.620038e+00  3.000000e-01  4.797721e-02
    endloop
  endfacet
  facet normal  0.000000e+00 -1.000000e+00  0.000000e+00
    outer loop
      vertex   1.620038e+00  3.000000e-01  4.797721e-02
      vertex   2.260038e+00  3.000000e-01  6.480016e-01
      vertex   9.000158e-01  3.000000e-01  3.679493e-01
    endloop
  endfacet
  facet normal  0.000000e+00 -1.000000e+00  0.000000e+00
    outer loop
      vertex   1.620038e+00  3.000000e-01  4.797721e-02
      vertex   9.000158e-01  3.000000e-01  3.679493e-01
      vertex   8.970998e-01  3.000000e-01  3.447143e-01
    endloop
  endfacet
  facet normal -0.000000e+00 -1.000000e+00  0.000000e+00
    outer loop
      vertex   2.260038e+00  3.000000e-01  6.480016e-01
      vertex   9.000158e-01  3.000000e-01  6.480016e-01
      vertex   9.000158e-01  3.000000e-01  3.679493e-01
    endloop
  endfacet
  facet normal  0.000000e+00 -1.000000e+00 -0.000000e+00
    outer loop
      vertex   8.970998e-01  3.000000e-01  3.447143e-01
      vertex   8.885305e-01  3.000000e-01  3.229213e-01
      vertex   1.620038e+00  3.000000e-01  4.797721e-02
    endloop
  endfacet
  facet normal  0.000000e+00 -1.000000e+00  0.000000e+00
    outer loop
      vertex   1.620038e+00  3.000000e-01  4.797721e-02
      vertex   8.885305e-01  3.000000e-01  3.229213e-01
      vertex   8.748404e-01  3.000000e-01  3.039225e-01
    endloop
  endfacet
  facet normal  0.000000e+00 -1.000000e+00  0.000000e+00
    outer loop
      vertex   1.620038e+00  3.000000e-01  4.797721e-02
      vertex   8.748404e-01  3.000000e-01  3.039225e-01
      vertex   8.568792e-01  3.000000e-01  2.888970e-01
    endloop
  endfacet
  facet normal  0.000000e+00 -1.000000e+00  0.000000e+00
    outer loop
      vertex   8.357614e-01  3.000000e-01  2.787772e-01
      vertex   7.326692e-01  3.000000e-01  2.441004e-01
      vertex   7.341509e-01  3.000000e-01  2.344482e-01
    endloop
  endfacet
  facet normal -0.000000e+00 -1.000000e+00  0.000000e+00
    outer loop
      vertex   7.124135e-01  3.000000e-01  3.592491e-01
      vertex   7.127224e-01  3.000000e-01  3.795004e-01
      vertex   2.000059e-01  3.000000e-01  1.480016e-01
    endloop
  endfacet
  facet normal  0.000000e+00 -1.000000e+00  0.000000e+00
    outer loop
      vertex   2.000059e-01  3.000000e-01  1.480016e-01
      vertex   7.127224e-01  3.000000e-01  3.795004e-01
      vertex   2.000059e-01  3.000000e-01  6.480016e-01
    endloop
  endfacet
  facet normal  0.000000e+00 -1.000000e+00  0.000000e+00
    outer loop
      vertex   2.000059e-01  3.000000e-01  6.480016e-01
      vertex   7.127224e-01  3.000000e-01  3.795004e-01
      vertex   7.173620e-01  3.000000e-01  3.992155e-01
    endloop
  endfacet
  facet normal  0.000000e+00 -1.000000e+00  0.000000e+00
    outer loop
      vertex   2.000059e-01  3.000000e-01  6.480016e-01
      vertex   7.173620e-01  3.000000e-01  3.992155e-01
      vertex   7.261171e-01  3.000000e-01  4.174792e-01
    endloop
  endfacet
  facet normal  0.000000e+00 -1.000000e+00  0.000000e+00
    outer loop
      vertex   7.261171e-01  3.000000e-01  4.174792e-01
      vertex   7.385810e-01  3.000000e-01  4.334437e-01
      vertex   2.000059e-01  3.000000e-01  6.480016e-01
    endloop
  endfacet
  facet normal  0.000000e+00 -1.000000e+00  0.000000e+00
    outer loop
      vertex   2.000059e-01  3.000000e-01  6.480016e-01
      vertex   7.385810e-01  3.000000e-01  4.334437e-01
      vertex   7.541753e-01  3.000000e-01  4.463677e-01
    endloop
  endfacet
  facet normal  0.000000e+00 -1.000000e+00  0.000000e+00
    outer loop
      vertex   2.000059e-01  3.000000e-01  6.480016e-01
      vertex   7.541753e-01  3.000000e-01  4.463677e-01
      vertex   7.541753e-01  3.000000e-01  6.480016e-01
    endloop
  endfacet
  facet normal  0.000000e+00 -1.000000e+00  0.000000e+00
    outer loop
      vertex   2.000059e-01  3.000000e-01  1.480016e-01
      vertex   5.400059e-01  3.000000e-01  1.480016e-01
      vertex   5.520288e-01  3.000000e-01  1.599822e-01
    endloop
  endfacet
  facet normal  0.000000e+00 -1.000000e+00  0.000000e+00
    outer loop
      vertex   5.520288e-01  3.000000e-01  1.599822e-01
      vertex   6.240394e-01  3.000000e-01  1.599822e-01
      vertex   6.240394e-01  3.000000e-01  1.743759e-01
    endloop
  endfacet
  facet normal  0.000000e+00 -1.000000e+00  0.000000e+00
    outer loop
      vertex   6.622747e-01  3.000000e-01  1.709605e-01
      vertex   7.367756e-01  3.000000e-01  1.607866e-01
      vertex   6.581669e-01  3.000000e-01  1.732098e-01
    endloop
  endfacet
  facet normal  0.000000e+00 -1.000000e+00  0.000000e+00
    outer loop
      vertex   6.581669e-01  3.000000e-01  1.732098e-01
      vertex   7.367756e-01  3.000000e-01  1.607866e-01
      vertex   7.474015e-01  3.000000e-01  1.612946e-01
    endloop
  endfacet
  facet normal  0.000000e+00 -1.000000e+00  0.000000e+00
    outer loop
      vertex   6.581669e-01  3.000000e-01  1.732098e-01
      vertex   7.474015e-01  3.000000e-01  1.612946e-01
      vertex   7.580698e-01  3.000000e-01  1.619719e-01
    endloop
  endfacet
  facet normal  0.000000e+00 -1.000000e+00  0.000000e+00
    outer loop
      vertex   6.657003e-01  3.000000e-01  1.677671e-01
      vertex   7.047709e-01  3.000000e-01  1.602786e-01
      vertex   6.622747e-01  3.000000e-01  1.709605e-01
    endloop
  endfacet
  facet normal  0.000000e+00 -1.000000e+00  0.000000e+00
    outer loop
      vertex   6.622747e-01  3.000000e-01  1.709605e-01
      vertex   7.047709e-01  3.000000e-01  1.602786e-01
      vertex   7.154391e-01  3.000000e-01  1.602786e-01
    endloop
  endfacet
  facet normal  0.000000e+00 -1.000000e+00  0.000000e+00
    outer loop
      vertex   6.622747e-01  3.000000e-01  1.709605e-01
      vertex   7.154391e-01  3.000000e-01  1.602786e-01
      vertex   7.261074e-01  3.000000e-01  1.604479e-01
    endloop
  endfacet
  facet normal  0.000000e+00 -1.000000e+00  0.000000e+00
    outer loop
      vertex   7.047709e-01  3.000000e-01  1.602786e-01
      vertex   6.657003e-01  3.000000e-01  1.677671e-01
      vertex   6.818558e-01  3.000000e-01  1.623776e-01
    endloop
  endfacet
  facet normal  0.000000e+00 -1.000000e+00  0.000000e+00
    outer loop
      vertex   6.818558e-01  3.000000e-01  1.623776e-01
      vertex   6.657003e-01  3.000000e-01  1.677671e-01
      vertex   6.706090e-01  3.000000e-01  1.647098e-01
    endloop
  endfacet
  facet normal  0.000000e+00 -1.000000e+00  0.000000e+00
    outer loop
      vertex   6.818558e-01  3.000000e-01  1.623776e-01
      vertex   6.706090e-01  3.000000e-01  1.647098e-01
      vertex   6.760947e-01  3.000000e-01  1.628798e-01
    endloop
  endfacet
  facet normal  0.000000e+00 -1.000000e+00  0.000000e+00
    outer loop
      vertex   6.834344e-01  3.000000e-01  1.607866e-01
      vertex   6.941026e-01  3.000000e-01  1.604479e-01
      vertex   6.818558e-01  3.000000e-01  1.623776e-01
    endloop
  endfacet
  facet normal  0.000000e+00 -1.000000e+00  0.000000e+00
    outer loop
      vertex   6.818558e-01  3.000000e-01  1.623776e-01
      vertex   6.941026e-01  3.000000e-01  1.604479e-01
      vertex   7.047709e-01  3.000000e-01  1.602786e-01
    endloop
  endfacet
  facet normal  0.000000e+00 -1.000000e+00  0.000000e+00
    outer loop
      vertex   7.261074e-01  3.000000e-01  1.604479e-01
      vertex   7.367756e-01  3.000000e-01  1.607866e-01
      vertex   6.622747e-01  3.000000e-01  1.709605e-01
    endloop
  endfacet
  facet normal  0.000000e+00 -1.000000e+00  0.000000e+00
    outer loop
      vertex   7.580698e-01  3.000000e-01  1.619719e-01
      vertex   7.686957e-01  3.000000e-01  1.628186e-01
      vertex   6.581669e-01  3.000000e-01  1.732098e-01
    endloop
  endfacet
  facet normal  0.000000e+00  1.000000e+00 -0.000000e+00
    outer loop
      vertex   1.620038e+00  5.000000e-01  1.000000e-06
      vertex   8.600107e-01  5.000000e-01  1.000000e-06
      vertex   1.620038e+00  5.000000e-01  4.797721e-02
    endloop
  endfacet
  facet normal  0.000000e+00  1.000000e+00  0.000000e+00
    outer loop
      vertex   1.620038e+00  5.000000e-01  4.797721e-02
      vertex   8.600107e-01  5.000000e-01  1.000000e-06
      vertex   7.868571e-01  5.000000e-01  1.499913e-01
    endloop
  endfacet
  facet normal  0.000000e+00  1.000000e+00  0.000000e+00
    outer loop
      vertex   1.620038e+00  5.000000e-01  4.797721e-02
      vertex   7.868571e-01  5.000000e-01  1.499913e-01
      vertex   8.568792e-01  5.000000e-01  2.888970e-01
    endloop
  endfacet
  facet normal  0.000000e+00  1.000000e+00  0.000000e+00
    outer loop
      vertex   8.568792e-01  5.000000e-01  2.888970e-01
      vertex   7.868571e-01  5.000000e-01  1.499913e-01
      vertex   7.819384e-01  5.000000e-01  1.557404e-01
    endloop
  endfacet
  facet normal  0.000000e+00  1.000000e+00  0.000000e+00
    outer loop
      vertex   8.568792e-01  5.000000e-01  2.888970e-01
      vertex   7.819384e-01  5.000000e-01  1.557404e-01
      vertex   8.357614e-01  5.000000e-01  2.787772e-01
    endloop
  endfacet
  facet normal  0.000000e+00  1.000000e+00  0.000000e+00
    outer loop
      vertex   8.357614e-01  5.000000e-01  2.787772e-01
      vertex   7.819384e-01  5.000000e-01  1.557404e-01
      vertex   7.757584e-01  5.000000e-01  1.601053e-01
    endloop
  endfacet
  facet normal  0.000000e+00  1.000000e+00  0.000000e+00
    outer loop
      vertex   8.357614e-01  5.000000e-01  2.787772e-01
      vertex   7.757584e-01  5.000000e-01  1.601053e-01
      vertex   7.341509e-01  5.000000e-01  2.344482e-01
    endloop
  endfacet
  facet normal  0.000000e+00  1.000000e+00  0.000000e+00
    outer loop
      vertex   7.341509e-01  5.000000e-01  2.344482e-01
      vertex   7.757584e-01  5.000000e-01  1.601053e-01
      vertex   7.686957e-01  5.000000e-01  1.628186e-01
    endloop
  endfacet
  facet normal  0.000000e+00  1.000000e+00  0.000000e+00
    outer loop
      vertex   7.341509e-01  5.000000e-01  2.344482e-01
      vertex   7.686957e-01  5.000000e-01  1.628186e-01
      vertex   7.236520e-01  5.000000e-01  2.286484e-01
    endloop
  endfacet
  facet normal  0.000000e+00  1.000000e+00  0.000000e+00
    outer loop
      vertex   7.236520e-01  5.000000e-01  2.286484e-01
      vertex   7.686957e-01  5.000000e-01  1.628186e-01
      vertex   6.581669e-01  5.000000e-01  1.732098e-01
    endloop
  endfacet
  facet normal  0.000000e+00  1.000000e+00  0.000000e+00
    outer loop
      vertex   7.236520e-01  5.000000e-01  2.286484e-01
      vertex   6.581669e-01  5.000000e-01  1.732098e-01
      vertex   6.536311e-01  5.000000e-01  1.743759e-01
    endloop
  endfacet
  facet normal  0.000000e+00  1.000000e+00  0.000000e+00
    outer loop
      vertex   7.686957e-01  5.000000e-01  1.628186e-01
      vertex   7.580698e-01  5.000000e-01  1.619719e-01
      vertex   6.581669e-01  5.000000e-01  1.732098e-01
    endloop
  endfacet
  facet normal  0.000000e+00  1.000000e+00  0.000000e+00
    outer loop
      vertex   6.581669e-01  5.000000e-01  1.732098e-01
      vertex   7.580698e-01  5.000000e-01  1.619719e-01
      vertex   7.474015e-01  5.000000e-01  1.612946e-01
    endloop
  endfacet
  facet normal  0.000000e+00  1.000000e+00  0.000000e+00
    outer loop
      vertex   6.581669e-01  5.000000e-01  1.732098e-01
      vertex   7.474015e-01  5.000000e-01  1.612946e-01
      vertex   7.367756e-01  5.000000e-01  1.607866e-01
    endloop
  endfacet
  facet normal  0.000000e+00  1.000000e+00  0.000000e+00
    outer loop
      vertex   6.581669e-01  5.000000e-01  1.732098e-01
      vertex   7.367756e-01  5.000000e-01  1.607866e-01
      vertex   6.622747e-01  5.000000e-01  1.709605e-01
    endloop
  endfacet
  facet normal  0.000000e+00  1.000000e+00  0.000000e+00
    outer loop
      vertex   6.622747e-01  5.000000e-01  1.709605e-01
      vertex   7.367756e-01  5.000000e-01  1.607866e-01
      vertex   7.261074e-01  5.000000e-01  1.604479e-01
    endloop
  endfacet
  facet normal  0.000000e+00  1.000000e+00  0.000000e+00
    outer loop
      vertex   6.622747e-01  5.000000e-01  1.709605e-01
      vertex   7.261074e-01  5.000000e-01  1.604479e-01
      vertex   7.154391e-01  5.000000e-01  1.602786e-01
    endloop
  endfacet
  facet normal  0.000000e+00  1.000000e+00  0.000000e+00
    outer loop
      vertex   7.154391e-01  5.000000e-01  1.602786e-01
      vertex   7.047709e-01  5.000000e-01  1.602786e-01
      vertex   6.622747e-01  5.000000e-01  1.709605e-01
    endloop
  endfacet
  facet normal  0.000000e+00  1.000000e+00  0.000000e+00
    outer loop
      vertex   6.622747e-01  5.000000e-01  1.709605e-01
      vertex   7.047709e-01  5.000000e-01  1.602786e-01
      vertex   6.657003e-01  5.000000e-01  1.677671e-01
    endloop
  endfacet
  facet normal  0.000000e+00  1.000000e+00  0.000000e+00
    outer loop
      vertex   6.657003e-01  5.000000e-01  1.677671e-01
      vertex   7.047709e-01  5.000000e-01  1.602786e-01
      vertex   6.818558e-01  5.000000e-01  1.623776e-01
    endloop
  endfacet
  facet normal  0.000000e+00  1.000000e+00  0.000000e+00
    outer loop
      vertex   6.657003e-01  5.000000e-01  1.677671e-01
      vertex   6.818558e-01  5.000000e-01  1.623776e-01
      vertex   6.706090e-01  5.000000e-01  1.647098e-01
    endloop
  endfacet
  facet normal  0.000000e+00  1.000000e+00  0.000000e+00
    outer loop
      vertex   6.706090e-01  5.000000e-01  1.647098e-01
      vertex   6.818558e-01  5.000000e-01  1.623776e-01
      vertex   6.760947e-01  5.000000e-01  1.628798e-01
    endloop
  endfacet
  facet normal  0.000000e+00  1.000000e+00  0.000000e+00
    outer loop
      vertex   7.047709e-01  5.000000e-01  1.602786e-01
      vertex   6.941026e-01  5.000000e-01  1.604479e-01
      vertex   6.818558e-01  5.000000e-01  1.623776e-01
    endloop
  endfacet
  facet normal  0.000000e+00  1.000000e+00  0.000000e+00
    outer loop
      vertex   6.818558e-01  5.000000e-01  1.623776e-01
      vertex   6.941026e-01  5.000000e-01  1.604479e-01
      vertex   6.834344e-01  5.000000e-01  1.607866e-01
    endloop
  endfacet
  facet normal  0.000000e+00  1.000000e+00 -0.000000e+00
    outer loop
      vertex   6.536311e-01  5.000000e-01  1.743759e-01
      vertex   6.240394e-01  5.000000e-01  1.743759e-01
      vertex   7.236520e-01  5.000000e-01  2.286484e-01
    endloop
  endfacet
  facet normal  0.000000e+00  1.000000e+00  0.000000e+00
    outer loop
      vertex   7.236520e-01  5.000000e-01  2.286484e-01
      vertex   6.240394e-01  5.000000e-01  1.743759e-01
      vertex   7.178581e-01  5.000000e-01  2.391555e-01
    endloop
  endfacet
  facet normal  0.000000e+00  1.000000e+00  0.000000e+00
    outer loop
      vertex   7.178581e-01  5.000000e-01  2.391555e-01
      vertex   6.240394e-01  5.000000e-01  1.743759e-01
      vertex   5.520288e-01  5.000000e-01  1.599822e-01
    endloop
  endfacet
  facet normal  0.000000e+00  1.000000e+00  0.000000e+00
    outer loop
      vertex   7.178581e-01  5.000000e-01  2.391555e-01
      vertex   5.520288e-01  5.000000e-01  1.599822e-01
      vertex   7.070974e-01  5.000000e-01  2.784475e-01
    endloop
  endfacet
  facet normal  0.000000e+00  1.000000e+00  0.000000e+00
    outer loop
      vertex   7.070974e-01  5.000000e-01  2.784475e-01
      vertex   5.520288e-01  5.000000e-01  1.599822e-01
      vertex   2.000059e-01  5.000000e-01  1.480016e-01
    endloop
  endfacet
  facet normal  0.000000e+00  1.000000e+00  0.000000e+00
    outer loop
      vertex   7.070974e-01  5.000000e-01  2.784475e-01
      vertex   2.000059e-01  5.000000e-01  1.480016e-01
      vertex   7.052523e-01  5.000000e-01  3.191445e-01
    endloop
  endfacet
  facet normal  0.000000e+00  1.000000e+00 -0.000000e+00
    outer loop
      vertex   7.052523e-01  5.000000e-01  3.191445e-01
      vertex   2.000059e-01  5.000000e-01  1.480016e-01
      vertex   7.124135e-01  5.000000e-01  3.592491e-01
    endloop
  endfacet
  facet normal  0.000000e+00  1.000000e+00 -0.000000e+00
    outer loop
      vertex   7.124135e-01  5.000000e-01  3.592491e-01
      vertex   2.000059e-01  5.000000e-01  1.480016e-01
      vertex   7.127224e-01  5.000000e-01  3.795004e-01
    endloop
  endfacet
  facet normal  0.000000e+00  1.000000e+00  0.000000e+00
    outer loop
      vertex   7.127224e-01  5.000000e-01  3.795004e-01
      vertex   2.000059e-01  5.000000e-01  1.480016e-01
      vertex   2.000059e-01  5.000000e-01  6.480016e-01
    endloop
  endfacet
  facet normal  0.000000e+00  1.000000e+00 -0.000000e+00
    outer loop
      vertex   7.127224e-01  5.000000e-01  3.795004e-01
      vertex   2.000059e-01  5.000000e-01  6.480016e-01
      vertex   7.173620e-01  5.000000e-01  3.992155e-01
    endloop
  endfacet
  facet normal  0.000000e+00  1.000000e+00 -0.000000e+00
    outer loop
      vertex   7.173620e-01  5.000000e-01  3.992155e-01
      vertex   2.000059e-01  5.000000e-01  6.480016e-01
      vertex   7.261171e-01  5.000000e-01  4.174792e-01
    endloop
  endfacet
  facet normal  0.000000e+00  1.000000e+00 -0.000000e+00
    outer loop
      vertex   7.261171e-01  5.000000e-01  4.174792e-01
      vertex   2.000059e-01  5.000000e-01  6.480016e-01
      vertex   7.385810e-01  5.000000e-01  4.334437e-01
    endloop
  endfacet
  facet normal  0.000000e+00  1.000000e+00 -0.000000e+00
    outer loop
      vertex   7.385810e-01  5.000000e-01  4.334437e-01
      vertex   2.000059e-01  5.000000e-01  6.480016e-01
      vertex   7.541753e-01  5.000000e-01  4.463677e-01
    endloop
  endfacet
  facet normal  0.000000e+00  1.000000e+00 -0.000000e+00
    outer loop
      vertex   7.541753e-01  5.000000e-01  4.463677e-01
      vertex   2.000059e-01  5.000000e-01  6.480016e-01
      vertex   7.541753e-01  5.000000e-01  6.480016e-01
    endloop
  endfacet
  facet normal  0.000000e+00  1.000000e+00  0.000000e+00
    outer loop
      vertex   6.240394e-01  5.000000e-01  1.743759e-01
      vertex   6.240394e-01  5.000000e-01  1.599822e-01
      vertex   5.520288e-01  5.000000e-01  1.599822e-01
    endloop
  endfacet
  facet normal  0.000000e+00  1.000000e+00  0.000000e+00
    outer loop
      vertex   5.520288e-01  5.000000e-01  1.599822e-01
      vertex   5.400059e-01  5.000000e-01  1.480016e-01
      vertex   2.000059e-01  5.000000e-01  1.480016e-01
    endloop
  endfacet
  facet normal  0.000000e+00  1.000000e+00 -0.000000e+00
    outer loop
      vertex   7.341509e-01  5.000000e-01  2.344482e-01
      vertex   7.326692e-01  5.000000e-01  2.441004e-01
      vertex   8.357614e-01  5.000000e-01  2.787772e-01
    endloop
  endfacet
  facet normal -0.000000e+00  1.000000e+00  0.000000e+00
    outer loop
      vertex   8.568792e-01  5.000000e-01  2.888970e-01
      vertex   8.748404e-01  5.000000e-01  3.039225e-01
      vertex   1.620038e+00  5.000000e-01  4.797721e-02
    endloop
  endfacet
  facet normal  0.000000e+00  1.000000e+00  0.000000e+00
    outer loop
      vertex   1.620038e+00  5.000000e-01  4.797721e-02
      vertex   8.748404e-01  5.000000e-01  3.039225e-01
      vertex   8.885305e-01  5.000000e-01  3.229213e-01
    endloop
  endfacet
  facet normal  0.000000e+00  1.000000e+00  0.000000e+00
    outer loop
      vertex   1.620038e+00  5.000000e-01  4.797721e-02
      vertex   8.885305e-01  5.000000e-01  3.229213e-01
      vertex   8.970998e-01  5.000000e-01  3.447143e-01
    endloop
  endfacet
  facet normal -0.000000e+00  1.000000e+00  0.000000e+00
    outer loop
      vertex   8.970998e-01  5.000000e-01  3.447143e-01
      vertex   9.000158e-01  5.000000e-01  3.679493e-01
      vertex   1.620038e+00  5.000000e-01  4.797721e-02
    endloop
  endfacet
  facet normal  0.000000e+00  1.000000e+00 -0.000000e+00
    outer loop
      vertex   1.620038e+00  5.000000e-01  4.797721e-02
      vertex   9.000158e-01  5.000000e-01  3.679493e-01
      vertex   2.260038e+00  5.000000e-01  6.480016e-01
    endloop
  endfacet
  facet normal  0.000000e+00  1.000000e+00  0.000000e+00
    outer loop
      vertex   1.620038e+00  5.000000e-01  4.797721e-02
      vertex   2.260038e+00  5.000000e-01  6.480016e-01
      vertex   2.260038e+00  5.000000e-01  4.797721e-02
    endloop
  endfacet
  facet normal  0.000000e+00  1.000000e+00  0.000000e+00
    outer loop
      vertex   9.000158e-01  5.000000e-01  3.679493e-01
      vertex   9.000158e-01  5.000000e-01  6.480016e-01
      vertex   2.260038e+00  5.000000e-01  6.480016e-01
    endloop
  endfacet
endsolid vcg
