solid STL generated by MeshLab
  facet normal  1.000000e+00  0.000000e+00 -0.000000e+00
    outer loop
      vertex   2.260038e+00  5.000000e-01  4.797721e-02
      vertex   2.260038e+00  5.000000e-01  6.480016e-01
      vertex   2.260038e+00  3.000000e-01  4.797721e-02
    endloop
  endfacet
  facet normal  1.000000e+00  0.000000e+00  0.000000e+00
    outer loop
      vertex   2.260038e+00  3.000000e-01  4.797721e-02
      vertex   2.260038e+00  5.000000e-01  6.480016e-01
      vertex   2.260038e+00  3.000000e-01  6.480016e-01
    endloop
  endfacet
endsolid vcg
