solid STL generated by MeshLab
  facet normal  7.942941e-02  0.000000e+00 -9.968405e-01
    outer loop
      vertex   7.686957e-01  3.000000e-01  1.628186e-01
      vertex   7.580698e-01  3.000000e-01  1.619719e-01
      vertex   7.686957e-01  5.000000e-01  1.628186e-01
    endloop
  endfacet
  facet normal  7.942941e-02  0.000000e+00 -9.968405e-01
    outer loop
      vertex   7.686957e-01  5.000000e-01  1.628186e-01
      vertex   7.580698e-01  3.000000e-01  1.619719e-01
      vertex   7.580698e-01  5.000000e-01  1.619719e-01
    endloop
  endfacet
  facet normal -7.598535e-01 -0.000000e+00 -6.500943e-01
    outer loop
      vertex   7.868571e-01  5.000000e-01  1.499913e-01
      vertex   7.868571e-01  3.000000e-01  1.499913e-01
      vertex   7.819384e-01  5.000000e-01  1.557404e-01
    endloop
  endfacet
  facet normal -7.598535e-01 -0.000000e+00 -6.500943e-01
    outer loop
      vertex   7.819384e-01  5.000000e-01  1.557404e-01
      vertex   7.868571e-01  3.000000e-01  1.499913e-01
      vertex   7.819384e-01  3.000000e-01  1.557404e-01
    endloop
  endfacet
  facet normal -5.769092e-01 -0.000000e+00 -8.168082e-01
    outer loop
      vertex   7.819384e-01  5.000000e-01  1.557404e-01
      vertex   7.819384e-01  3.000000e-01  1.557404e-01
      vertex   7.757584e-01  5.000000e-01  1.601053e-01
    endloop
  endfacet
  facet normal -5.769092e-01 -0.000000e+00 -8.168082e-01
    outer loop
      vertex   7.757584e-01  5.000000e-01  1.601053e-01
      vertex   7.819384e-01  3.000000e-01  1.557404e-01
      vertex   7.757584e-01  3.000000e-01  1.601053e-01
    endloop
  endfacet
  facet normal -3.586145e-01 -0.000000e+00 -9.334857e-01
    outer loop
      vertex   7.757584e-01  5.000000e-01  1.601053e-01
      vertex   7.757584e-01  3.000000e-01  1.601053e-01
      vertex   7.686957e-01  5.000000e-01  1.628186e-01
    endloop
  endfacet
  facet normal -3.586145e-01 -0.000000e+00 -9.334857e-01
    outer loop
      vertex   7.686957e-01  5.000000e-01  1.628186e-01
      vertex   7.757584e-01  3.000000e-01  1.601053e-01
      vertex   7.686957e-01  3.000000e-01  1.628186e-01
    endloop
  endfacet
  facet normal -8.987977e-01  0.000000e+00 -4.383636e-01
    outer loop
      vertex   8.139896e-01  3.000000e-01  9.436012e-02
      vertex   8.139896e-01  5.000000e-01  9.436012e-02
      vertex   8.600107e-01  3.000000e-01  1.000000e-06
    endloop
  endfacet
  facet normal -8.987977e-01  0.000000e+00 -4.383636e-01
    outer loop
      vertex   8.600107e-01  3.000000e-01  1.000000e-06
      vertex   8.139896e-01  5.000000e-01  9.436012e-02
      vertex   8.600107e-01  5.000000e-01  1.000000e-06
    endloop
  endfacet
  facet normal -2.735083e-01 -0.000000e+00 -9.618696e-01
    outer loop
      vertex   8.950211e-01  5.000000e-01  1.335233e-01
      vertex   8.950211e-01  3.000000e-01  1.335233e-01
      vertex   8.597553e-01  5.000000e-01  1.435512e-01
    endloop
  endfacet
  facet normal -2.735083e-01 -0.000000e+00 -9.618696e-01
    outer loop
      vertex   8.597553e-01  5.000000e-01  1.435512e-01
      vertex   8.950211e-01  3.000000e-01  1.335233e-01
      vertex   8.597553e-01  3.000000e-01  1.435512e-01
    endloop
  endfacet
  facet normal -1.505160e-01 -0.000000e+00 -9.886076e-01
    outer loop
      vertex   8.597553e-01  5.000000e-01  1.435512e-01
      vertex   8.597553e-01  3.000000e-01  1.435512e-01
      vertex   8.235093e-01  3.000000e-01  1.490697e-01
    endloop
  endfacet
  facet normal -2.513914e-02  0.000000e+00 -9.996839e-01
    outer loop
      vertex   7.868571e-01  3.000000e-01  1.499913e-01
      vertex   7.868571e-01  5.000000e-01  1.499913e-01
      vertex   8.235093e-01  3.000000e-01  1.490697e-01
    endloop
  endfacet
  facet normal -2.513914e-02  0.000000e+00 -9.996839e-01
    outer loop
      vertex   8.235093e-01  3.000000e-01  1.490697e-01
      vertex   7.868571e-01  5.000000e-01  1.499913e-01
      vertex   8.235093e-01  5.000000e-01  1.490697e-01
    endloop
  endfacet
  facet normal -1.505160e-01  0.000000e+00 -9.886076e-01
    outer loop
      vertex   8.235093e-01  3.000000e-01  1.490697e-01
      vertex   8.235093e-01  5.000000e-01  1.490697e-01
      vertex   8.597553e-01  5.000000e-01  1.435512e-01
    endloop
  endfacet
  facet normal -7.337453e-01  0.000000e+00  6.794246e-01
    outer loop
      vertex   8.139896e-01  3.000000e-01  9.436012e-02
      vertex   8.484111e-01  3.000000e-01  1.315336e-01
      vertex   8.139896e-01  5.000000e-01  9.436012e-02
    endloop
  endfacet
  facet normal -7.337453e-01  0.000000e+00  6.794246e-01
    outer loop
      vertex   8.139896e-01  5.000000e-01  9.436012e-02
      vertex   8.484111e-01  3.000000e-01  1.315336e-01
      vertex   8.484111e-01  5.000000e-01  1.315336e-01
    endloop
  endfacet
  facet normal  7.517254e-02 -0.000000e+00  9.971705e-01
    outer loop
      vertex   8.484111e-01  3.000000e-01  1.315336e-01
      vertex   8.950211e-01  3.000000e-01  1.280199e-01
      vertex   8.484111e-01  5.000000e-01  1.315336e-01
    endloop
  endfacet
  facet normal  7.517254e-02  0.000000e+00  9.971705e-01
    outer loop
      vertex   8.484111e-01  5.000000e-01  1.315336e-01
      vertex   8.950211e-01  3.000000e-01  1.280199e-01
      vertex   8.950211e-01  5.000000e-01  1.280199e-01
    endloop
  endfacet
  facet normal -1.000000e+00  0.000000e+00  0.000000e+00
    outer loop
      vertex   8.950211e-01  3.000000e-01  1.280199e-01
      vertex   8.950211e-01  3.000000e-01  1.335233e-01
      vertex   8.950211e-01  5.000000e-01  1.280199e-01
    endloop
  endfacet
  facet normal -1.000000e+00  0.000000e+00  0.000000e+00
    outer loop
      vertex   8.950211e-01  5.000000e-01  1.280199e-01
      vertex   8.950211e-01  3.000000e-01  1.335233e-01
      vertex   8.950211e-01  5.000000e-01  1.335233e-01
    endloop
  endfacet
  facet normal  1.000000e+00  0.000000e+00  0.000000e+00
    outer loop
      vertex   1.620038e+00  3.000000e-01  1.000000e-06
      vertex   1.620038e+00  5.000000e-01  1.000000e-06
      vertex   1.620038e+00  3.000000e-01  4.797721e-02
    endloop
  endfacet
  facet normal  1.000000e+00 -0.000000e+00  0.000000e+00
    outer loop
      vertex   1.620038e+00  3.000000e-01  4.797721e-02
      vertex   1.620038e+00  5.000000e-01  1.000000e-06
      vertex   1.620038e+00  5.000000e-01  4.797721e-02
    endloop
  endfacet
  facet normal -0.000000e+00 -0.000000e+00 -1.000000e+00
    outer loop
      vertex   1.620038e+00  5.000000e-01  1.000000e-06
      vertex   1.620038e+00  3.000000e-01  1.000000e-06
      vertex   8.600107e-01  5.000000e-01  1.000000e-06
    endloop
  endfacet
  facet normal  0.000000e+00  0.000000e+00 -1.000000e+00
    outer loop
      vertex   8.600107e-01  5.000000e-01  1.000000e-06
      vertex   1.620038e+00  3.000000e-01  1.000000e-06
      vertex   8.600107e-01  3.000000e-01  1.000000e-06
    endloop
  endfacet
  facet normal  0.000000e+00  0.000000e+00 -1.000000e+00
    outer loop
      vertex   1.620038e+00  5.000000e-01  4.797721e-02
      vertex   2.260044e+00  5.000000e-01  4.797721e-02
      vertex   1.620038e+00  3.000000e-01  4.797721e-02
    endloop
  endfacet
  facet normal  0.000000e+00  0.000000e+00 -1.000000e+00
    outer loop
      vertex   1.620038e+00  3.000000e-01  4.797721e-02
      vertex   2.260044e+00  5.000000e-01  4.797721e-02
      vertex   2.260044e+00  3.000000e-01  4.797721e-02
    endloop
  endfacet
  facet normal  6.336448e-02  0.000000e+00 -9.979905e-01
    outer loop
      vertex   7.580698e-01  3.000000e-01  1.619719e-01
      vertex   7.474015e-01  3.000000e-01  1.612946e-01
      vertex   7.580698e-01  5.000000e-01  1.619719e-01
    endloop
  endfacet
  facet normal  6.336448e-02  0.000000e+00 -9.979905e-01
    outer loop
      vertex   7.580698e-01  5.000000e-01  1.619719e-01
      vertex   7.474015e-01  3.000000e-01  1.612946e-01
      vertex   7.474015e-01  5.000000e-01  1.612946e-01
    endloop
  endfacet
  facet normal  0.000000e+00  0.000000e+00 -1.000000e+00
    outer loop
      vertex   5.400059e-01  3.000000e-01  1.480016e-01
      vertex   2.000000e-01  3.000000e-01  1.480016e-01
      vertex   5.400059e-01  5.000000e-01  1.480016e-01
    endloop
  endfacet
  facet normal -0.000000e+00  0.000000e+00 -1.000000e+00
    outer loop
      vertex   5.400059e-01  5.000000e-01  1.480016e-01
      vertex   2.000000e-01  3.000000e-01  1.480016e-01
      vertex   2.000000e-01  5.000000e-01  1.480016e-01
    endloop
  endfacet
  facet normal  7.058573e-01  0.000000e+00 -7.083541e-01
    outer loop
      vertex   5.520288e-01  5.000000e-01  1.599822e-01
      vertex   5.520288e-01  3.000000e-01  1.599822e-01
      vertex   5.400059e-01  5.000000e-01  1.480016e-01
    endloop
  endfacet
  facet normal  7.058573e-01  0.000000e+00 -7.083541e-01
    outer loop
      vertex   5.400059e-01  5.000000e-01  1.480016e-01
      vertex   5.520288e-01  3.000000e-01  1.599822e-01
      vertex   5.400059e-01  3.000000e-01  1.480016e-01
    endloop
  endfacet
  facet normal  1.000000e+00  0.000000e+00  0.000000e+00
    outer loop
      vertex   6.240394e-01  5.000000e-01  1.743759e-01
      vertex   6.240394e-01  3.000000e-01  1.743759e-01
      vertex   6.240394e-01  5.000000e-01  1.599822e-01
    endloop
  endfacet
  facet normal  1.000000e+00  0.000000e+00  0.000000e+00
    outer loop
      vertex   6.240394e-01  5.000000e-01  1.599822e-01
      vertex   6.240394e-01  3.000000e-01  1.743759e-01
      vertex   6.240394e-01  3.000000e-01  1.599822e-01
    endloop
  endfacet
  facet normal  0.000000e+00  0.000000e+00 -1.000000e+00
    outer loop
      vertex   6.240394e-01  3.000000e-01  1.599822e-01
      vertex   5.520288e-01  3.000000e-01  1.599822e-01
      vertex   6.240394e-01  5.000000e-01  1.599822e-01
    endloop
  endfacet
  facet normal -0.000000e+00  0.000000e+00 -1.000000e+00
    outer loop
      vertex   6.240394e-01  5.000000e-01  1.599822e-01
      vertex   5.520288e-01  3.000000e-01  1.599822e-01
      vertex   5.520288e-01  5.000000e-01  1.599822e-01
    endloop
  endfacet
  facet normal  0.000000e+00  0.000000e+00 -1.000000e+00
    outer loop
      vertex   6.536311e-01  3.000000e-01  1.743759e-01
      vertex   6.240394e-01  3.000000e-01  1.743759e-01
      vertex   6.536311e-01  5.000000e-01  1.743759e-01
    endloop
  endfacet
  facet normal -0.000000e+00  0.000000e+00 -1.000000e+00
    outer loop
      vertex   6.536311e-01  5.000000e-01  1.743759e-01
      vertex   6.240394e-01  3.000000e-01  1.743759e-01
      vertex   6.240394e-01  5.000000e-01  1.743759e-01
    endloop
  endfacet
  facet normal -7.098638e-01  0.000000e+00 -7.043389e-01
    outer loop
      vertex   6.834344e-01  3.000000e-01  1.607866e-01
      vertex   6.818558e-01  3.000000e-01  1.623776e-01
      vertex   6.834344e-01  5.000000e-01  1.607866e-01
    endloop
  endfacet
  facet normal -7.098638e-01  0.000000e+00 -7.043389e-01
    outer loop
      vertex   6.834344e-01  5.000000e-01  1.607866e-01
      vertex   6.818558e-01  3.000000e-01  1.623776e-01
      vertex   6.818558e-01  5.000000e-01  1.623776e-01
    endloop
  endfacet
  facet normal -8.683643e-02 -0.000000e+00 -9.962226e-01
    outer loop
      vertex   6.818558e-01  5.000000e-01  1.623776e-01
      vertex   6.818558e-01  3.000000e-01  1.623776e-01
      vertex   6.760947e-01  5.000000e-01  1.628798e-01
    endloop
  endfacet
  facet normal -8.683643e-02 -0.000000e+00 -9.962226e-01
    outer loop
      vertex   6.760947e-01  5.000000e-01  1.628798e-01
      vertex   6.818558e-01  3.000000e-01  1.623776e-01
      vertex   6.760947e-01  3.000000e-01  1.628798e-01
    endloop
  endfacet
  facet normal -3.164589e-01 -0.000000e+00 -9.486063e-01
    outer loop
      vertex   6.760947e-01  5.000000e-01  1.628798e-01
      vertex   6.760947e-01  3.000000e-01  1.628798e-01
      vertex   6.706090e-01  5.000000e-01  1.647098e-01
    endloop
  endfacet
  facet normal -3.164589e-01 -0.000000e+00 -9.486063e-01
    outer loop
      vertex   6.706090e-01  5.000000e-01  1.647098e-01
      vertex   6.760947e-01  3.000000e-01  1.628798e-01
      vertex   6.706090e-01  3.000000e-01  1.647098e-01
    endloop
  endfacet
  facet normal -5.286753e-01 -0.000000e+00 -8.488241e-01
    outer loop
      vertex   6.706090e-01  5.000000e-01  1.647098e-01
      vertex   6.706090e-01  3.000000e-01  1.647098e-01
      vertex   6.657003e-01  5.000000e-01  1.677671e-01
    endloop
  endfacet
  facet normal -5.286753e-01 -0.000000e+00 -8.488241e-01
    outer loop
      vertex   6.657003e-01  5.000000e-01  1.677671e-01
      vertex   6.706090e-01  3.000000e-01  1.647098e-01
      vertex   6.657003e-01  3.000000e-01  1.677671e-01
    endloop
  endfacet
  facet normal -6.818762e-01 -0.000000e+00 -7.314675e-01
    outer loop
      vertex   6.657003e-01  5.000000e-01  1.677671e-01
      vertex   6.657003e-01  3.000000e-01  1.677671e-01
      vertex   6.622747e-01  5.000000e-01  1.709605e-01
    endloop
  endfacet
  facet normal -6.818762e-01 -0.000000e+00 -7.314675e-01
    outer loop
      vertex   6.622747e-01  5.000000e-01  1.709605e-01
      vertex   6.657003e-01  3.000000e-01  1.677671e-01
      vertex   6.622747e-01  3.000000e-01  1.709605e-01
    endloop
  endfacet
  facet normal -4.802827e-01 -0.000000e+00 -8.771138e-01
    outer loop
      vertex   6.622747e-01  5.000000e-01  1.709605e-01
      vertex   6.622747e-01  3.000000e-01  1.709605e-01
      vertex   6.581669e-01  5.000000e-01  1.732098e-01
    endloop
  endfacet
  facet normal -4.802827e-01 -0.000000e+00 -8.771138e-01
    outer loop
      vertex   6.581669e-01  5.000000e-01  1.732098e-01
      vertex   6.622747e-01  3.000000e-01  1.709605e-01
      vertex   6.581669e-01  3.000000e-01  1.732098e-01
    endloop
  endfacet
  facet normal -2.489866e-01 -0.000000e+00 -9.685069e-01
    outer loop
      vertex   6.581669e-01  5.000000e-01  1.732098e-01
      vertex   6.581669e-01  3.000000e-01  1.732098e-01
      vertex   6.536311e-01  5.000000e-01  1.743759e-01
    endloop
  endfacet
  facet normal -2.489866e-01 -0.000000e+00 -9.685069e-01
    outer loop
      vertex   6.536311e-01  5.000000e-01  1.743759e-01
      vertex   6.581669e-01  3.000000e-01  1.732098e-01
      vertex   6.536311e-01  3.000000e-01  1.743759e-01
    endloop
  endfacet
  facet normal  4.775415e-02  0.000000e+00 -9.988592e-01
    outer loop
      vertex   7.474015e-01  3.000000e-01  1.612946e-01
      vertex   7.367756e-01  3.000000e-01  1.607866e-01
      vertex   7.474015e-01  5.000000e-01  1.612946e-01
    endloop
  endfacet
  facet normal  4.775415e-02  0.000000e+00 -9.988592e-01
    outer loop
      vertex   7.474015e-01  5.000000e-01  1.612946e-01
      vertex   7.367756e-01  3.000000e-01  1.607866e-01
      vertex   7.367756e-01  5.000000e-01  1.607866e-01
    endloop
  endfacet
  facet normal  3.172987e-02  0.000000e+00 -9.994965e-01
    outer loop
      vertex   7.367756e-01  3.000000e-01  1.607866e-01
      vertex   7.261074e-01  3.000000e-01  1.604479e-01
      vertex   7.367756e-01  5.000000e-01  1.607866e-01
    endloop
  endfacet
  facet normal  3.172987e-02  0.000000e+00 -9.994965e-01
    outer loop
      vertex   7.367756e-01  5.000000e-01  1.607866e-01
      vertex   7.261074e-01  3.000000e-01  1.604479e-01
      vertex   7.261074e-01  5.000000e-01  1.604479e-01
    endloop
  endfacet
  facet normal  1.587102e-02  0.000000e+00 -9.998741e-01
    outer loop
      vertex   7.261074e-01  3.000000e-01  1.604479e-01
      vertex   7.154391e-01  3.000000e-01  1.602786e-01
      vertex   7.261074e-01  5.000000e-01  1.604479e-01
    endloop
  endfacet
  facet normal  1.587102e-02  0.000000e+00 -9.998741e-01
    outer loop
      vertex   7.261074e-01  5.000000e-01  1.604479e-01
      vertex   7.154391e-01  3.000000e-01  1.602786e-01
      vertex   7.154391e-01  5.000000e-01  1.602786e-01
    endloop
  endfacet
  facet normal  0.000000e+00  0.000000e+00 -1.000000e+00
    outer loop
      vertex   7.154391e-01  3.000000e-01  1.602786e-01
      vertex   7.047709e-01  3.000000e-01  1.602786e-01
      vertex   7.154391e-01  5.000000e-01  1.602786e-01
    endloop
  endfacet
  facet normal -0.000000e+00  0.000000e+00 -1.000000e+00
    outer loop
      vertex   7.154391e-01  5.000000e-01  1.602786e-01
      vertex   7.047709e-01  3.000000e-01  1.602786e-01
      vertex   7.047709e-01  5.000000e-01  1.602786e-01
    endloop
  endfacet
  facet normal -1.587093e-02  0.000000e+00 -9.998741e-01
    outer loop
      vertex   7.047709e-01  3.000000e-01  1.602786e-01
      vertex   6.941026e-01  3.000000e-01  1.604479e-01
      vertex   7.047709e-01  5.000000e-01  1.602786e-01
    endloop
  endfacet
  facet normal -1.587093e-02  0.000000e+00 -9.998741e-01
    outer loop
      vertex   7.047709e-01  5.000000e-01  1.602786e-01
      vertex   6.941026e-01  3.000000e-01  1.604479e-01
      vertex   6.941026e-01  5.000000e-01  1.604479e-01
    endloop
  endfacet
  facet normal -3.173005e-02  0.000000e+00 -9.994965e-01
    outer loop
      vertex   6.941026e-01  3.000000e-01  1.604479e-01
      vertex   6.834344e-01  3.000000e-01  1.607866e-01
      vertex   6.941026e-01  5.000000e-01  1.604479e-01
    endloop
  endfacet
  facet normal -3.173005e-02  0.000000e+00 -9.994965e-01
    outer loop
      vertex   6.941026e-01  5.000000e-01  1.604479e-01
      vertex   6.834344e-01  3.000000e-01  1.607866e-01
      vertex   6.834344e-01  5.000000e-01  1.607866e-01
    endloop
  endfacet
endsolid vcg
